<svg width="20" height="20" viewBox="0 0 20 20" fill="none" xmlns="http://www.w3.org/2000/svg">
<g id="Frame 38" clip-path="url(#clip0_388_134)">
<g id="Group 4">
<path id="Rectangle 2 (Stroke)" fill-rule="evenodd" clip-rule="evenodd" d="M2.29167 2.5715C1.71637 2.5715 1.25 3.03787 1.25 3.61317V16.9465C1.25 17.5218 1.71637 17.9882 2.29167 17.9882H15.625C16.2003 17.9882 16.6667 17.5218 16.6667 16.9465V14.4465C16.6667 14.1013 16.9465 13.8215 17.2917 13.8215C17.6368 13.8215 17.9167 14.1013 17.9167 14.4465V16.9465C17.9167 18.2122 16.8907 19.2382 15.625 19.2382H2.29167C1.02601 19.2382 0 18.2122 0 16.9465V3.61317C0 2.34752 1.02601 1.3215 2.29167 1.3215H4.79167C5.13684 1.3215 5.41667 1.60132 5.41667 1.9465C5.41667 2.29168 5.13684 2.5715 4.79167 2.5715H2.29167Z" fill="#1F4DCC"/>
<path id="Vector 13 (Stroke)" fill-rule="evenodd" clip-rule="evenodd" d="M16.2486 1.31102C16.1672 1.22966 16.0353 1.22966 15.954 1.31102L15.0804 2.18458L17.0537 4.15784L17.9272 3.28428C18.0086 3.20292 18.0086 3.07101 17.9272 2.98965L16.2486 1.31102ZM16.1698 5.04173L14.1965 3.06847L7.46136 9.80363L9.43462 11.7769L16.1698 5.04173ZM8.21212 12.3222L6.91609 11.0261L6.48407 12.7542L8.21212 12.3222ZM15.0701 0.427136C15.6396 -0.142379 16.563 -0.142378 17.1325 0.427136L18.8111 2.10577C19.3806 2.67528 19.3806 3.59865 18.8111 4.16816L9.75415 13.2251L6.04616 14.1521C5.46636 14.2971 4.94117 13.7719 5.08613 13.1921L6.01312 9.4841L15.0701 0.427136Z" fill="#1F4DCC"/>
</g>
</g>
<defs>
<clipPath id="clip0_388_134">
<rect width="20" height="20" fill="white"/>
</clipPath>
</defs>
</svg>
