<svg width="24" height="24" viewBox="0 0 24 24" fill="none" xmlns="http://www.w3.org/2000/svg">
<path fill-rule="evenodd" clip-rule="evenodd" d="M15.5125 9.52243C15.7763 9.80505 15.761 10.248 15.4784 10.5118L11.3365 14.3775C10.9773 14.7128 10.4157 14.698 10.0746 14.3443L8.49689 12.7082C8.22854 12.4299 8.2366 11.9867 8.51489 11.7184C8.79318 11.45 9.23632 11.4581 9.50467 11.7364L10.7409 13.0184L14.5232 9.48831C14.8058 9.22453 15.2487 9.2398 15.5125 9.52243Z" fill="#A87300"/>
<path fill-rule="evenodd" clip-rule="evenodd" d="M11.9722 3.9C8.16459 3.9 4.9686 6.4845 4.06331 9.97571C3.96627 10.3499 3.58424 10.5746 3.21001 10.4776C2.83579 10.3806 2.61109 9.99852 2.70813 9.6243C3.77124 5.5245 7.51764 2.5 11.9722 2.5C16.9285 2.5 21.0101 6.24496 21.4908 11.0503C21.5293 11.435 21.2487 11.778 20.864 11.8165C20.4793 11.855 20.1363 11.5744 20.0978 11.1897C19.6888 7.1012 16.2105 3.9 11.9722 3.9ZM3.21001 13.5224C3.58424 13.4254 3.96627 13.6501 4.06331 14.0243C4.9686 17.5155 8.16459 20.1 11.9722 20.1C15.4304 20.1 18.3848 17.9682 19.5759 14.9598C19.7183 14.6004 20.125 14.4243 20.4845 14.5667C20.8439 14.709 21.0199 15.1158 20.8776 15.4752C19.4803 19.0041 16.0189 21.5 11.9722 21.5C7.51764 21.5 3.77124 18.4755 2.70813 14.3757C2.61109 14.0015 2.83579 13.6195 3.21001 13.5224Z" fill="#F7B628"/>
<path fill-rule="evenodd" clip-rule="evenodd" d="M23.4378 9.25405C23.7394 9.49592 23.7878 9.93649 23.5459 10.2381L21.887 12.3065C21.6127 12.6485 21.132 12.7431 20.7486 12.5307L18.2495 11.1457C17.9114 10.9583 17.7891 10.5323 17.9765 10.1942C18.1639 9.85601 18.59 9.7338 18.9281 9.92119L21.0586 11.1018L22.4538 9.36217C22.6956 9.06058 23.1362 9.01217 23.4378 9.25405Z" fill="#F7B628"/>
<path fill-rule="evenodd" clip-rule="evenodd" d="M1.2947 16.1415C0.955854 15.8711 0.900916 15.3778 1.17199 15.0398L2.82581 12.9778C3.12914 12.5995 3.66182 12.4949 4.08629 12.7301L6.57814 14.111C6.95747 14.3212 7.09414 14.7984 6.8834 15.1767C6.67266 15.5551 6.19432 15.6915 5.81499 15.4812L3.74874 14.3362L2.39907 16.0191C2.128 16.3571 1.63355 16.4119 1.2947 16.1415Z" fill="#F7B628"/>
</svg>
