<svg width="24" height="24" viewBox="0 0 24 24" fill="none" xmlns="http://www.w3.org/2000/svg">
<path fill-rule="evenodd" clip-rule="evenodd" d="M11.9722 3.9C8.16459 3.9 4.9686 6.4845 4.06331 9.9757C3.96627 10.3499 3.58424 10.5746 3.21001 10.4776C2.83579 10.3806 2.61109 9.99852 2.70813 9.6243C3.77124 5.5245 7.51764 2.5 11.9722 2.5C16.9285 2.5 21.0101 6.24495 21.4908 11.0503C21.5293 11.435 21.2486 11.778 20.864 11.8165C20.4793 11.855 20.1362 11.5744 20.0978 11.1897C19.6888 7.1012 16.2105 3.9 11.9722 3.9ZM3.21001 13.5224C3.58424 13.4254 3.96627 13.6501 4.06331 14.0243C4.9686 17.5155 8.16459 20.1 11.9722 20.1C15.4304 20.1 18.3848 17.9682 19.5759 14.9598C19.7183 14.6004 20.125 14.4243 20.4845 14.5667C20.8439 14.709 21.0199 15.1158 20.8776 15.4752C19.4803 19.0041 16.0189 21.5 11.9722 21.5C7.51764 21.5 3.77124 18.4755 2.70813 14.3757C2.61109 14.0015 2.83579 13.6194 3.21001 13.5224Z" fill="#F7B628"/>
<path fill-rule="evenodd" clip-rule="evenodd" d="M23.4378 9.25381C23.7394 9.49568 23.7878 9.93624 23.5459 10.2378L21.887 12.3063C21.6127 12.6482 21.132 12.7429 20.7486 12.5304L18.2495 11.1455C17.9114 10.9581 17.7891 10.5321 17.9765 10.1939C18.1639 9.85576 18.59 9.73355 18.9281 9.92094L21.0586 11.1016L22.4538 9.36192C22.6956 9.06034 23.1362 9.01193 23.4378 9.25381Z" fill="#F7B628"/>
<path fill-rule="evenodd" clip-rule="evenodd" d="M1.29471 16.1415C0.955857 15.8711 0.900918 15.3779 1.172 15.0398L2.82581 12.9778C3.12915 12.5995 3.66182 12.4949 4.08629 12.7301L6.57814 14.111C6.95747 14.3212 7.09414 14.7984 6.8834 15.1767C6.67266 15.5551 6.19432 15.6915 5.81499 15.4812L3.74874 14.3362L2.39908 16.0191C2.128 16.3571 1.63355 16.4119 1.29471 16.1415Z" fill="#F7B628"/>
<path fill-rule="evenodd" clip-rule="evenodd" d="M12 17C12.5523 17 13 16.5523 13 16C13 15.4477 12.5523 15 12 15C11.4477 15 11 15.4477 11 16C11 16.5523 11.4477 17 12 17Z" fill="#A87300"/>
<path fill-rule="evenodd" clip-rule="evenodd" d="M12 7.25C12.4142 7.25 12.75 7.58579 12.75 8L12.75 13C12.75 13.4142 12.4142 13.75 12 13.75C11.5858 13.75 11.25 13.4142 11.25 13L11.25 8C11.25 7.58579 11.5858 7.25 12 7.25Z" fill="#A87300"/>
</svg>
