<svg width="24" height="24" viewBox="0 0 24 24" fill="none" xmlns="http://www.w3.org/2000/svg">
<path fill-rule="evenodd" clip-rule="evenodd" d="M15.5125 9.52243C15.7763 9.80505 15.761 10.248 15.4784 10.5118L11.3365 14.3775C10.9773 14.7128 10.4157 14.698 10.0746 14.3443L8.49689 12.7082C8.22854 12.4299 8.2366 11.9867 8.51489 11.7184C8.79318 11.45 9.23632 11.4581 9.50467 11.7364L10.7409 13.0184L14.5232 9.48831C14.8058 9.22453 15.2487 9.2398 15.5125 9.52243Z" fill="#1F4DCC"/>
<path fill-rule="evenodd" clip-rule="evenodd" d="M11.6327 3.54981C10.7547 4.55623 9.35506 4.93127 8.09155 4.49864C7.81258 4.40313 7.51347 4.57582 7.45671 4.86517C7.19961 6.17572 6.17498 7.20034 4.86444 7.45744C4.57509 7.5142 4.40239 7.81331 4.49791 8.09228C4.93053 9.35579 4.55549 10.7555 3.54907 11.6334C3.32687 11.8272 3.32687 12.1726 3.54908 12.3664C4.55549 13.2444 4.93053 14.644 4.49791 15.9075C4.40239 16.1865 4.57509 16.4856 4.86444 16.5424C6.17498 16.7995 7.19961 17.8241 7.45671 19.1347C7.51347 19.424 7.81258 19.5967 8.09155 19.5012C9.35506 19.0686 10.7547 19.4436 11.6327 20.45C11.8265 20.6722 12.1719 20.6722 12.3657 20.45C13.2436 19.4436 14.6433 19.0686 15.9068 19.5012C16.1858 19.5967 16.4849 19.424 16.5417 19.1347C16.7987 17.8241 17.8234 16.7995 19.1339 16.5424C19.4233 16.4856 19.596 16.1865 19.5004 15.9075C19.0678 14.644 19.4429 13.2444 20.4493 12.3664C20.6715 12.1726 20.6715 11.8272 20.4493 11.6334C19.4429 10.7555 19.0678 9.35579 19.5004 8.09228C19.596 7.81331 19.4233 7.5142 19.1339 7.45744C17.8234 7.20034 16.7987 6.17572 16.5417 4.86517C16.4849 4.57582 16.1858 4.40313 15.9068 4.49864C14.6433 4.93127 13.2436 4.55623 12.3657 3.54981C12.1719 3.3276 11.8265 3.3276 11.6327 3.54981ZM13.4207 2.6295C12.6689 1.76771 11.3294 1.76771 10.5776 2.6295C10.0737 3.20718 9.27031 3.42246 8.54506 3.17413C7.46311 2.80368 6.30304 3.47344 6.08289 4.59566C5.93532 5.34792 5.34718 5.93605 4.59493 6.08362C3.47271 6.30377 2.80295 7.46384 3.1734 8.54579C3.42173 9.27104 3.20645 10.0745 2.62877 10.5784C1.76697 11.3301 1.76697 12.6697 2.62877 13.4214C3.20645 13.9254 3.42173 14.7288 3.1734 15.454C2.80295 16.536 3.47271 17.696 4.59493 17.9162C5.34718 18.0638 5.93532 18.6519 6.08289 19.4042C6.30304 20.5264 7.46311 21.1961 8.54506 20.8257C9.27031 20.5774 10.0737 20.7926 10.5776 21.3703C11.3294 22.2321 12.6689 22.2321 13.4207 21.3703C13.9246 20.7926 14.728 20.5774 15.4533 20.8257C16.5352 21.1961 17.6953 20.5264 17.9155 19.4042C18.063 18.6519 18.6512 18.0638 19.4034 17.9162C20.5256 17.696 21.1954 16.536 20.825 15.454C20.5766 14.7288 20.7919 13.9254 21.3696 13.4214C22.2314 12.6697 22.2314 11.3301 21.3696 10.5784C20.7919 10.0745 20.5766 9.27104 20.825 8.54579C21.1954 7.46384 20.5256 6.30377 19.4034 6.08362C18.6512 5.93605 18.063 5.34792 17.9155 4.59566C17.6953 3.47344 16.5352 2.80368 15.4533 3.17413C14.728 3.42246 13.9246 3.20718 13.4207 2.6295Z" fill="#1F4DCC"/>
</svg>
