<svg width="24" height="24" viewBox="0 0 24 24" fill="none" xmlns="http://www.w3.org/2000/svg">
<path fill-rule="evenodd" clip-rule="evenodd" d="M5 7.3H15C15.9389 7.3 16.7 8.06112 16.7 9V15C16.7 15.9389 15.9389 16.7 15 16.7H5C4.06112 16.7 3.3 15.9389 3.3 15V9C3.3 8.06112 4.06112 7.3 5 7.3ZM2 9C2 7.34315 3.34315 6 5 6H15C16.6569 6 18 7.34315 18 9V9.39998L20.7884 7.72694C21.3216 7.407 22 7.79109 22 8.41293V15.587C22 16.2089 21.3216 16.593 20.7884 16.273L18 14.6V15C18 16.6569 16.6569 18 15 18H5C3.34315 18 2 16.6569 2 15V9ZM18.3 13.2639V10.736L20.7 9.29602V14.7039L18.3 13.2639Z" fill="black"/>
</svg>
