<?xml version="1.0" encoding="UTF-8"?>
<!DOCTYPE svg PUBLIC "-//W3C//DTD SVG 1.1//EN" "http://www.w3.org/Graphics/SVG/1.1/DTD/svg11.dtd">
<svg version="1.1" xmlns="http://www.w3.org/2000/svg" xmlns:xlink="http://www.w3.org/1999/xlink" width="24" height="24"  xml:space="preserve" id="adjustedDecreaseInfusionRateDoneEarly">
    <!-- Generated by PaintCode - http://www.paintcodeapp.com -->
    <g id="adjustedDecreaseInfusionRateDoneEarly-group">
        <g id="adjustedDecreaseInfusionRateDoneEarly-group2">
            <g id="adjustedDecreaseInfusionRateDoneEarly-group3">
                <g id="adjustedDecreaseInfusionRateDoneEarly-group4">
                    <path id="adjustedDecreaseInfusionRateDoneEarly-fluidBag2" stroke="none" fill="rgb(149, 37, 39)" d="M 7.64,2 C 6.18,2 5,3.37 5,4.5 L 5,16.93 C 5,18.29 5.8,19.14 7.64,19.14 L 10.34,19.14 10.34,21 C 10.34,21.68 11.29,22 12.25,22 13.2,22 14.16,21.68 14.16,21 L 14.16,19.14 16.97,19.14 C 18.87,19.14 19.5,18.29 19.5,16.93 L 19.5,4.5 C 19.5,3.37 18.39,2 16.86,2 L 7.64,2 Z M 7.64,2" />
                    <g id="adjustedDecreaseInfusionRateDoneEarly-group5" transform="" >
                        <path id="adjustedDecreaseInfusionRateDoneEarly-fluidBag" stroke="rgb(82, 176, 73)" stroke-width="0.66" stroke-miterlimit="10" fill="none" d="M 7.64,2 C 6.18,2 5,3.37 5,4.5 L 5,16.93 C 5,18.29 5.8,19.14 7.64,19.14 L 10.34,19.14 10.34,21 C 10.34,21.68 11.29,22 12.25,22 13.2,22 14.16,21.68 14.16,21 L 14.16,19.14 16.97,19.14 C 18.87,19.14 19.5,18.29 19.5,16.93 L 19.5,4.5 C 19.5,3.37 18.39,2 16.86,2 L 7.64,2 Z M 7.64,2" />
                    </g>
                </g>
                <path id="adjustedDecreaseInfusionRateDoneEarly-bezier2" stroke="none" fill="rgb(82, 176, 73)" d="M 16,18 L 13.5,18 C 13.5,19.07 13.5,20.6 13.5,20.6 13.5,20.99 13.19,21.3 12.8,21.3 L 11.7,21.3 C 11.31,21.3 11,20.99 11,20.6 11,20.6 11,19.07 11,18 L 8.46,18 C 6,18 6,15.14 6,15.14 L 6,5.85 C 6,5.31 6.09,4.87 6.24,4.51 6.85,3 8.46,3 8.46,3 L 15.98,3 C 15.95,6.28 15.99,15.02 16,18 Z M 16,18" />
            </g>
        </g>
        <g id="adjustedDecreaseInfusionRateDoneEarly-group6" transform="translate(5, 2) scale(1.4, 0.91)" >
            <g id="adjustedDecreaseInfusionRateDoneEarly-group7" transform="scale(0.71, 1.1)" >
                <path id="adjustedDecreaseInfusionRateDoneEarly-bezier" stroke="none" fill="rgb(255, 255, 255)" d="M 8.92,5.78 C 8.92,5.83 8.91,5.88 8.9,5.93 L 10.01,5.92 8.15,9.15 6.29,5.92 7.43,5.92 C 7.42,5.88 7.42,5.83 7.42,5.78 7.42,3.89 5.89,2.36 4,2.36 3.59,2.36 3.25,2.03 3.25,1.61 3.25,1.2 3.59,0.86 4,0.86 6.72,0.86 8.92,3.06 8.92,5.78 Z M 8.92,5.78" />
            </g>
        </g>
    </g>
    <g id="adjustedDecreaseInfusionRateDoneEarly-group8" transform="translate(9, 11)" >
        <path id="adjustedDecreaseInfusionRateDoneEarly-bezier3" stroke="rgb(149, 37, 39)" stroke-width="0.7" stroke-linecap="round" stroke-linejoin="round" stroke-miterlimit="10" fill="none" d="M 3,1 L 5,5 1,5 3,1 Z M 3,1" />
    </g>
</svg>
