<?xml version="1.0" encoding="UTF-8"?>
<!DOCTYPE svg PUBLIC "-//W3C//DTD SVG 1.1//EN" "http://www.w3.org/Graphics/SVG/1.1/DTD/svg11.dtd">
<svg version="1.1" xmlns="http://www.w3.org/2000/svg" xmlns:xlink="http://www.w3.org/1999/xlink" width="24" height="24"  xml:space="preserve" id="administrationRequiresDoctorsConfirmationLate">
    <!-- Generated by PaintCode - http://www.paintcodeapp.com -->
    <rect id="administrationRequiresDoctorsConfirmationLate-rectangle" stroke="none" fill="rgb(255, 255, 255)" x="2" y="2" width="20" height="20" rx="6" />
    <g id="administrationRequiresDoctorsConfirmationLate-group" transform="scale(2.18, 2.18)" >
        <path id="administrationRequiresDoctorsConfirmationLate-rectangle2" stroke="none" fill="rgb(149, 37, 39)" d="M 1.5,8 C 1.5,8.83 2.17,9.5 3,9.5 L 8,9.5 C 8.83,9.5 9.5,8.83 9.5,8 L 9.5,3 C 9.5,2.17 8.83,1.5 8,1.5 L 3,1.5 C 2.17,1.5 1.5,2.17 1.5,3 L 1.5,8 Z M 0.5,8 L 0.5,3 C 0.5,1.62 1.62,0.5 3,0.5 L 8,0.5 C 9.38,0.5 10.5,1.62 10.5,3 L 10.5,8 C 10.5,9.38 9.38,10.5 8,10.5 L 3,10.5 C 1.62,10.5 0.5,9.38 0.5,8 Z M 0.5,8" />
    </g>
</svg>
