<?xml version="1.0" encoding="UTF-8"?>
<!DOCTYPE svg PUBLIC "-//W3C//DTD SVG 1.1//EN" "http://www.w3.org/Graphics/SVG/1.1/DTD/svg11.dtd">
<svg version="1.1" xmlns="http://www.w3.org/2000/svg" xmlns:xlink="http://www.w3.org/1999/xlink" width="24" height="24"  xml:space="preserve" id="infusionCompletedLate2">
    <!-- Generated by PaintCode - http://www.paintcodeapp.com -->
    <g id="infusionCompletedLate2-group">
        <g id="infusionCompletedLate2-group2">
            <g id="infusionCompletedLate2-group3">
                <path id="infusionCompletedLate2-fluidBag2" stroke="none" fill="rgb(149, 37, 39)" d="M 7.64,2 C 6.18,2 5,3.37 5,4.5 L 5,16.93 C 5,18.29 5.8,19.14 7.64,19.14 L 10.34,19.14 10.34,21 C 10.34,21.68 11.29,22 12.25,22 13.2,22 14.16,21.68 14.16,21 L 14.16,19.14 16.97,19.14 C 18.87,19.14 19.5,18.29 19.5,16.93 L 19.5,4.5 C 19.5,3.37 18.39,2 16.86,2 L 7.64,2 Z M 7.64,2" />
                <g id="infusionCompletedLate2-group4" transform="" >
                    <path id="infusionCompletedLate2-fluidBag" stroke="rgb(82, 176, 73)" stroke-width="0.66" stroke-miterlimit="10" fill="none" d="M 7.64,2 C 6.18,2 5,3.37 5,4.5 L 5,16.93 C 5,18.29 5.8,19.14 7.64,19.14 L 10.34,19.14 10.34,21 C 10.34,21.68 11.29,22 12.25,22 13.2,22 14.16,21.68 14.16,21 L 14.16,19.14 16.97,19.14 C 18.87,19.14 19.5,18.29 19.5,16.93 L 19.5,4.5 C 19.5,3.37 18.39,2 16.86,2 L 7.64,2 Z M 7.64,2" />
                </g>
            </g>
            <path id="infusionCompletedLate2-bezier2" stroke="none" fill="rgb(82, 176, 73)" d="M 8.5,18 L 11,18 C 11,19.07 11,20.6 11,20.6 11,20.99 11.31,21.3 11.7,21.3 L 12.8,21.3 C 13.19,21.3 13.5,20.99 13.5,20.6 13.5,20.6 13.5,19.07 13.5,18 L 16.04,18 C 18.5,18 18.5,15.14 18.5,15.14 L 18.5,5.85 C 18.5,5.31 18.41,4.87 18.26,4.51 17.65,3 16.04,3 16.04,3 L 8.52,3 C 8.55,6.28 8.51,15.02 8.5,18 Z M 8.5,18" />
        </g>
    </g>
    <g id="infusionCompletedLate2-group5">
        <g id="infusionCompletedLate2-group6" transform="translate(7, 3)" >
            <path id="infusionCompletedLate2-x2" stroke="rgb(255, 255, 255)" stroke-width="0" stroke-linecap="round" stroke-miterlimit="4" fill="none" d="M 6.13,5.46 L 8.94,1 7.24,1 5.53,4.01 C 5.44,4.17 5.34,4.38 5.21,4.64 L 5.19,4.64 C 5.11,4.44 5.01,4.24 4.91,4.04 L 3.26,1 1.41,1 4.16,5.47 1.17,10 2.99,10 4.92,6.7 C 5.01,6.51 5.07,6.36 5.11,6.27 L 5.14,6.27 C 5.2,6.46 5.26,6.6 5.32,6.7 L 7.19,10 9,10 6.13,5.46 Z M 6.13,5.46" />
            <path id="infusionCompletedLate2-x" stroke="none" fill="rgb(255, 255, 255)" d="M 6.13,5.46 L 8.94,1 7.24,1 5.53,4.01 C 5.44,4.17 5.34,4.38 5.21,4.64 L 5.19,4.64 C 5.11,4.44 5.01,4.24 4.91,4.04 L 3.26,1 1.41,1 4.16,5.47 1.17,10 2.99,10 4.92,6.7 C 5.01,6.51 5.07,6.36 5.11,6.27 L 5.14,6.27 C 5.2,6.46 5.26,6.6 5.32,6.7 L 7.19,10 9,10 6.13,5.46 Z M 6.13,5.46" />
        </g>
    </g>
</svg>
