<?xml version="1.0" encoding="UTF-8"?>
<!DOCTYPE svg PUBLIC "-//W3C//DTD SVG 1.1//EN" "http://www.w3.org/Graphics/SVG/1.1/DTD/svg11.dtd">
<svg version="1.1" xmlns="http://www.w3.org/2000/svg" xmlns:xlink="http://www.w3.org/1999/xlink" width="24" height="24"  xml:space="preserve" id="maintainInfusionRatePlanned">
    <!-- Generated by PaintCode - http://www.paintcodeapp.com -->
    <g id="maintainInfusionRatePlanned-group">
        <g id="maintainInfusionRatePlanned-group2">
            <g id="maintainInfusionRatePlanned-group3">
                <path id="maintainInfusionRatePlanned-fluidBag2" stroke="none" fill="rgb(60, 152, 199)" d="M 7.64,2 C 6.18,2 5,3.37 5,4.5 L 5,16.93 C 5,18.29 5.8,19.14 7.64,19.14 L 10.34,19.14 10.34,21 C 10.34,21.68 11.29,22 12.25,22 13.2,22 14.16,21.68 14.16,21 L 14.16,19.14 16.97,19.14 C 18.87,19.14 19.5,18.29 19.5,16.93 L 19.5,4.5 C 19.5,3.37 18.39,2 16.86,2 L 7.64,2 Z M 7.64,2" />
                <g id="maintainInfusionRatePlanned-group4" transform="" >
                    <path id="maintainInfusionRatePlanned-fluidBag" stroke="rgb(34, 11, 91)" stroke-width="0.66" stroke-miterlimit="10" fill="none" d="M 7.64,2 C 6.18,2 5,3.37 5,4.5 L 5,16.93 C 5,18.29 5.8,19.14 7.64,19.14 L 10.34,19.14 10.34,21 C 10.34,21.68 11.29,22 12.25,22 13.2,22 14.16,21.68 14.16,21 L 14.16,19.14 16.97,19.14 C 18.87,19.14 19.5,18.29 19.5,16.93 L 19.5,4.5 C 19.5,3.37 18.39,2 16.86,2 L 7.64,2 Z M 7.64,2" />
                </g>
            </g>
        </g>
    </g>
    <g id="maintainInfusionRatePlanned-group5" transform="translate(5, 2) scale(1.4, 0.91)" >
        <g id="maintainInfusionRatePlanned-group6" transform="scale(0.71, 1.1)" >
            <path id="maintainInfusionRatePlanned-bezier2" stroke="none" fill="rgb(255, 255, 255)" d="M 8.93,3.14 C 8.93,3.14 12.15,5 12.15,5 L 8.93,6.86 C 8.93,6.86 8.93,6.37 8.93,5.75 L 3,5.75 C 2.59,5.75 2.25,5.42 2.25,5 2.25,4.59 2.59,4.25 3,4.25 L 8.93,4.25 C 8.93,3.63 8.93,3.14 8.93,3.14 L 8.93,3.14 Z M 8.93,3.14" />
        </g>
    </g>
</svg>
