<?xml version="1.0" encoding="UTF-8"?>
<!DOCTYPE svg PUBLIC "-//W3C//DTD SVG 1.1//EN" "http://www.w3.org/Graphics/SVG/1.1/DTD/svg11.dtd">
<svg version="1.1" xmlns="http://www.w3.org/2000/svg" xmlns:xlink="http://www.w3.org/1999/xlink" width="24" height="24"  xml:space="preserve" id="referenceWeight">
    <!-- Generated by PaintCode - http://www.paintcodeapp.com -->
    <g id="referenceWeight-group" transform="translate(-1, 1)" >
        <path id="referenceWeight-oval" stroke="none" fill="rgb(34, 11, 91)" d="M 15,5 C 15,6.66 13.66,8 12,8 10.34,8 9,6.66 9,5 9,3.34 10.34,2 12,2 13.66,2 15,3.34 15,5 L 14,5 C 14,3.9 13.1,3 12,3 10.9,3 10,3.9 10,5 10,6.1 10.9,7 12,7 13.1,7 14,6.1 14,5 L 15,5 Z M 15,5" />
        <path id="referenceWeight-rectangle" stroke="none" fill="rgb(34, 11, 91)" d="M 3.5,20.5 L 20.5,20.5 20.01,21.08 18.01,8.08 18.5,8.5 5.5,8.5 5.99,8.08 3.99,21.08 3.5,20.5 Z M 3.5,21.5 C 3.19,21.5 2.96,21.23 3.01,20.92 L 5.01,7.92 C 5.04,7.68 5.25,7.5 5.5,7.5 L 18.5,7.5 C 18.75,7.5 18.96,7.68 18.99,7.92 L 20.99,20.92 C 21.04,21.23 20.81,21.5 20.5,21.5 L 3.5,21.5 Z M 3.5,21.5" />
        <path id="referenceWeight-text" stroke="none" fill="rgb(34, 11, 91)" d="M 12.1,16.5 L 11.37,16.5 9.42,13.9 8.86,14.4 8.86,16.5 8.24,16.5 8.24,11.15 8.86,11.15 8.86,13.8 11.29,11.15 12.02,11.15 9.87,13.47 12.1,16.5 Z M 16.03,12.49 L 16.03,12.87 15.29,12.96 C 15.36,13.04 15.42,13.16 15.47,13.29 15.53,13.43 15.55,13.59 15.55,13.76 15.55,14.15 15.42,14.47 15.15,14.7 14.88,14.94 14.51,15.05 14.04,15.05 13.92,15.05 13.81,15.04 13.71,15.02 13.45,15.16 13.32,15.33 13.32,15.54 13.32,15.65 13.36,15.73 13.45,15.78 13.54,15.84 13.7,15.86 13.92,15.86 L 14.63,15.86 C 15.06,15.86 15.4,15.95 15.63,16.14 15.86,16.32 15.98,16.59 15.98,16.94 15.98,17.38 15.8,17.72 15.45,17.95 15.09,18.19 14.57,18.3 13.89,18.3 13.36,18.3 12.96,18.2 12.67,18.01 12.39,17.81 12.25,17.54 12.25,17.18 12.25,16.94 12.32,16.73 12.48,16.55 12.64,16.37 12.86,16.25 13.14,16.19 13.04,16.14 12.95,16.07 12.88,15.97 12.81,15.87 12.78,15.76 12.78,15.63 12.78,15.48 12.82,15.35 12.89,15.24 12.97,15.13 13.1,15.03 13.26,14.93 13.06,14.84 12.89,14.69 12.76,14.49 12.63,14.28 12.56,14.05 12.56,13.79 12.56,13.35 12.69,13.01 12.96,12.77 13.22,12.53 13.59,12.41 14.08,12.41 14.29,12.41 14.48,12.44 14.64,12.49 L 16.03,12.49 Z M 12.83,17.17 C 12.83,17.39 12.92,17.56 13.11,17.67 13.29,17.78 13.55,17.84 13.89,17.84 14.4,17.84 14.78,17.76 15.03,17.61 15.27,17.46 15.4,17.25 15.4,16.99 15.4,16.77 15.33,16.62 15.19,16.53 15.06,16.45 14.81,16.41 14.44,16.41 L 13.71,16.41 C 13.43,16.41 13.22,16.47 13.06,16.61 12.91,16.74 12.83,16.93 12.83,17.17 Z M 13.16,13.77 C 13.16,14.05 13.24,14.26 13.4,14.41 13.56,14.55 13.78,14.62 14.06,14.62 14.66,14.62 14.95,14.34 14.95,13.76 14.95,13.16 14.65,12.86 14.05,12.86 13.77,12.86 13.55,12.93 13.39,13.09 13.24,13.24 13.16,13.47 13.16,13.77 Z M 13.16,13.77" />
    </g>
    <g id="referenceWeight-group2">
        <path id="referenceWeight-bezier" stroke="none" fill="rgb(90, 70, 128)" d="M 19.6,2 C 19.6,2 19.6,3.12 19.6,4.4 L 22,4.4 22,5.6 19.6,5.6 C 19.6,6.88 19.6,8 19.6,8 L 18.4,8 C 18.4,8 18.4,6.88 18.4,5.6 L 16,5.6 16,4.4 18.4,4.4 C 18.4,3.12 18.4,2 18.4,2 L 19.6,2 19.6,2 Z M 19.6,2" />
    </g>
</svg>
