<?xml version="1.0" encoding="UTF-8"?>
<!DOCTYPE svg PUBLIC "-//W3C//DTD SVG 1.1//EN" "http://www.w3.org/Graphics/SVG/1.1/DTD/svg11.dtd">
<svg version="1.1" xmlns="http://www.w3.org/2000/svg" xmlns:xlink="http://www.w3.org/1999/xlink" width="24" height="24"  xml:space="preserve" id="referenceHeight">
    <!-- Generated by PaintCode - http://www.paintcodeapp.com -->
    <g id="referenceHeight-group">
        <path id="referenceHeight-bezier" stroke="none" fill="rgb(34, 11, 91)" d="M 19.6,2 C 19.6,2 19.6,3.12 19.6,4.4 L 22,4.4 22,5.6 19.6,5.6 C 19.6,6.88 19.6,8 19.6,8 L 18.4,8 C 18.4,8 18.4,6.88 18.4,5.6 L 16,5.6 16,4.4 18.4,4.4 C 18.4,3.12 18.4,2 18.4,2 L 19.6,2 19.6,2 Z M 19.6,2" />
    </g>
    <path id="referenceHeight-text" stroke="none" fill="rgb(34, 11, 91)" d="M 14.52,18.07 C 13.95,18.07 13.51,17.9 13.22,17.57 12.92,17.23 12.77,16.75 12.77,16.13 12.77,15.49 12.93,15.01 13.24,14.66 13.55,14.32 14,14.15 14.58,14.15 14.98,14.15 15.34,14.23 15.66,14.37 L 15.42,15.02 C 15.08,14.89 14.8,14.82 14.58,14.82 13.92,14.82 13.6,15.26 13.6,16.12 13.6,16.55 13.68,16.87 13.84,17.08 14,17.29 14.24,17.4 14.56,17.4 14.91,17.4 15.25,17.31 15.57,17.13 L 15.57,17.83 C 15.43,17.92 15.28,17.98 15.11,18.01 14.95,18.05 14.75,18.07 14.52,18.07 Z M 19.65,18 L 18.84,18 18.84,15.67 C 18.84,15.38 18.79,15.16 18.68,15.02 18.57,14.88 18.4,14.81 18.16,14.81 17.85,14.81 17.63,14.91 17.48,15.11 17.34,15.31 17.26,15.65 17.26,16.12 L 17.26,18 16.46,18 16.46,14.22 17.09,14.22 17.2,14.72 17.24,14.72 C 17.35,14.54 17.5,14.4 17.7,14.3 17.9,14.2 18.12,14.15 18.36,14.15 18.94,14.15 19.32,14.35 19.51,14.75 L 19.57,14.75 C 19.68,14.56 19.84,14.41 20.04,14.31 20.24,14.2 20.47,14.15 20.74,14.15 21.19,14.15 21.52,14.27 21.72,14.49 21.93,14.72 22.03,15.07 22.03,15.54 L 22.03,18 21.23,18 21.23,15.67 C 21.23,15.38 21.17,15.16 21.06,15.02 20.95,14.88 20.78,14.81 20.55,14.81 20.24,14.81 20.01,14.91 19.86,15.1 19.72,15.29 19.65,15.59 19.65,16 L 19.65,18 Z M 19.65,18" />
    <path id="referenceHeight-bezier13" stroke="none" fill="rgb(34, 11, 91)" d="M 12,2 C 12,2 12,2.25 12,2.5 12,2.75 12,3 12,3 12,6.09 12,22.5 12,22.5 L 11,22.5 C 11,22.5 11,6.09 11,3 11,3 5.34,3 3,3 3,3.25 3,3.59 3,4 L 5,4 5,5 3,5 C 3,5.31 3,5.65 3,6 L 6,6 6,7 3,7 C 3,7.32 3,7.66 3,8 L 5,8 5,9 3,9 C 3,9.33 3,9.66 3,10 L 8,10 8,11 3,11 C 3,11.33 3,11.67 3,12 L 5,12 5,13 3,13 C 3,13.33 3,13.67 3,14 L 6,14 6,15 3,15 C 3,15.34 3,15.67 3,16 L 5,16 5,17 3,17 C 3,17.34 3,17.68 3,18 L 8,18 8,19 3,19 C 3,19.35 3,19.69 3,20 L 6,20 6,21 3,21 C 3,21.94 3,22.5 3,22.5 L 2,22.5 C 2,22.5 2,21.94 2,21 L 2,20 C 2,19.69 2,19.35 2,19 L 2,18 C 2,17.68 2,17.34 2,17 L 2,16 C 2,15.67 2,15.34 2,15 L 2,14 C 2,13.67 2,13.33 2,13 L 2,12 C 2,11.67 2,11.33 2,11 L 2,10 C 2,9.66 2,9.33 2,9 L 2,8 C 2,7.66 2,7.32 2,7 L 2,6 C 2,5.65 2,5.31 2,5 2,5 2,4.49 2,4.2 2,4.08 2,4 2,4 2,3.59 2,3.25 2,3 2,3 2,2.75 2,2.5 2,2.25 2,2 2,2 L 12,2 Z M 12,2" />
</svg>
