<svg width="257" height="65" viewBox="0 0 257 65" fill="none" xmlns="http://www.w3.org/2000/svg">
<g clip-path="url(#clip0_67_30811)">
<path d="M78.112 14.3119C73.045 14.3119 68.0988 16.1237 64.91 20.4419H64.7228V0.5H55.5853V50.2338H64.7228V32.2125C64.7228 25.5813 69.1678 22.7006 74.9836 22.7006C81.3068 22.7006 83.7467 27.4535 83.7467 32.0857V50.2338H92.8842V28.2084C92.8842 18.6965 85.6853 14.318 78.1181 14.318L78.112 14.3119Z" fill="#002656"/>
<path d="M108.895 15.3145H99.7577V50.2338H108.895V15.3145Z" fill="#002656"/>
<path d="M125.352 0.5H116.214V50.2338H125.352V0.5Z" fill="#002656"/>
<path d="M141.809 15.3145H132.672V50.2338H141.809V15.3145Z" fill="#002656"/>
<path d="M179.042 15.315V20.0076H178.915C176.348 16.8188 171.529 14.3125 165.272 14.3125C154.57 14.3125 146.315 21.759 146.315 32.2735C146.315 41.7854 153.32 50.0472 165.526 50.0472C170.72 50.0472 175.726 48.7306 178.728 44.8534H178.915V46.4779C178.915 53.9848 174.349 57.5541 167.398 57.5541C161.769 57.5541 158.327 55.9295 156.322 52.1126H147.094C147.269 53.1393 147.613 54.1237 148.006 54.9874C148.477 56.0563 149.038 57.0166 149.667 57.8802C149.83 58.1097 149.932 58.2365 149.932 58.2365C154.075 63.5934 161.057 64.9945 167.591 64.9945C178.414 64.9945 188.052 60.8636 188.052 46.7195V15.315H179.042ZM167.338 41.6586C160.706 41.6586 155.821 37.4008 155.821 32.0862C155.821 26.7716 160.64 22.6347 167.338 22.6347C174.035 22.6347 179.102 26.7656 179.102 32.0862C179.102 37.4069 174.096 41.6586 167.338 41.6586Z" fill="#002656"/>
<path d="M216.063 14.3119C210.996 14.3119 206.05 16.1237 202.861 20.4419H202.674V0.5H193.536V50.2338H202.674V32.2125C202.674 25.5813 207.119 22.7006 212.935 22.7006C219.252 22.7006 221.692 27.4535 221.692 32.0857V50.2338H230.829V28.2084C230.829 18.6965 223.63 14.318 216.063 14.318V14.3119Z" fill="#002656"/>
<path d="M256.931 22.0664V14.1187H245.227V6.21924H236.089V39.0973C236.089 42.727 236.089 51.3028 249.164 51.3028C251.978 51.3028 254.799 50.9284 256.925 49.9862V42.0989C255.046 42.8477 252.921 43.349 250.982 43.349C245.227 43.349 245.227 39.2845 245.227 35.9629V22.0664H256.931Z" fill="#002656"/>
<path d="M98.6156 6.23736C98.6156 3.10899 101.225 0.5 104.359 0.5C107.493 0.5 110.096 3.10899 110.096 6.23736C110.096 9.36573 107.487 11.9747 104.359 11.9747C101.231 11.9747 98.6216 9.36573 98.6216 6.23736H98.6156Z" fill="#002656"/>
<path d="M131.5 6.23736C131.5 3.10899 134.109 0.5 137.238 0.5C140.366 0.5 142.975 3.10899 142.975 6.23736C142.975 9.36573 140.366 11.9747 137.238 11.9747C134.109 11.9747 131.5 9.36573 131.5 6.23736Z" fill="#002656"/>
<path d="M34.0548 14.3125C30.25 14.3125 26.7653 15.9008 24.2349 18.4434C26.7533 20.9678 28.3235 24.4405 28.3235 28.2211C28.3235 32.0017 26.7533 35.4683 24.2349 37.9987C26.7653 40.5413 30.25 42.1296 34.0548 42.1296C41.6402 42.1296 47.9634 35.8065 47.9634 28.2211C47.9634 20.6357 41.6402 14.3125 34.0548 14.3125Z" fill="#002656"/>
<path d="M14.4086 14.3125C18.2133 14.3125 21.698 15.9008 24.2285 18.4434C21.7101 20.9678 20.1399 24.4405 20.1399 28.2211C20.1399 32.0017 21.7101 35.4683 24.2285 37.9987C21.698 40.5413 18.2133 42.1296 14.4086 42.1296C6.82317 42.1296 0.5 35.8065 0.5 28.2211C0.5 20.6357 6.82317 14.3125 14.4086 14.3125Z" fill="#002656"/>
</g>
<defs>
<clipPath id="clip0_67_30811">
<rect width="256.43" height="64.5" fill="white" transform="translate(0.5 0.5)"/>
</clipPath>
</defs>
</svg>
