<?xml version="1.0" encoding="UTF-8"?>
<!DOCTYPE svg PUBLIC "-//W3C//DTD SVG 1.1//EN" "http://www.w3.org/Graphics/SVG/1.1/DTD/svg11.dtd">
<svg version="1.1" xmlns="http://www.w3.org/2000/svg" xmlns:xlink="http://www.w3.org/1999/xlink" width="24" height="24"  xml:space="preserve" id="inhalation">
    <!-- Generated by PaintCode - http://www.paintcodeapp.com -->
    <g id="inhalation-group" transform="" >
        <path id="inhalation-bezier83" stroke="rgb(34, 11, 91)" stroke-width="1.32" stroke-miterlimit="10" fill="none" d="M 6,19 C 5.51,18.75 6,6 6,6 L 7,6 7,5 10.99,5 10.99,6 11.98,6 11.98,14 15.97,14 C 16.02,14.02 16,19.01 15.97,19 15.97,19 6.49,19.25 6,19 Z M 6,19" />
        <path id="inhalation-bezier87" stroke="none" fill="rgb(34, 11, 91)" d="M 17.5,16.67 L 19.44,16.67 C 19.62,16.67 19.77,16.82 19.77,17 19.77,17.18 19.62,17.33 19.44,17.33 L 17.5,17.33 C 17.32,17.33 17.17,17.18 17.17,17 17.17,16.82 17.32,16.67 17.5,16.67 Z M 20.38,16.67 L 22.32,16.67 C 22.5,16.67 22.65,16.82 22.65,17 22.65,17.18 22.5,17.33 22.32,17.33 L 20.38,17.33 C 20.2,17.33 20.05,17.18 20.05,17 20.05,16.82 20.2,16.67 20.38,16.67 Z M 20.38,16.67" />
        <path id="inhalation-bezier88" stroke="none" fill="rgb(34, 11, 91)" d="M 17.42,15.44 L 19.47,14.92 C 19.64,14.88 19.82,14.99 19.87,15.16 19.91,15.34 19.81,15.52 19.63,15.57 L 17.58,16.08 C 17.4,16.13 17.22,16.02 17.18,15.84 17.13,15.67 17.24,15.49 17.42,15.44 Z M 20.54,14.65 L 22.42,14.18 C 22.6,14.13 22.78,14.24 22.82,14.42 22.87,14.6 22.76,14.78 22.58,14.82 L 20.71,15.29 C 20.53,15.34 20.35,15.23 20.3,15.05 20.26,14.88 20.37,14.7 20.54,14.65 Z M 20.54,14.65" />
        <path id="inhalation-bezier2" stroke="none" fill="rgb(34, 11, 91)" d="M 17.58,17.92 L 19.63,18.43 C 19.81,18.48 19.91,18.66 19.87,18.84 19.82,19.01 19.64,19.12 19.47,19.08 L 17.42,18.56 C 17.24,18.51 17.13,18.33 17.18,18.16 17.22,17.98 17.4,17.87 17.58,17.92 Z M 20.71,18.71 L 22.58,19.18 C 22.76,19.22 22.87,19.4 22.82,19.58 22.78,19.76 22.6,19.87 22.42,19.82 L 20.54,19.35 C 20.37,19.3 20.26,19.12 20.3,18.95 20.35,18.77 20.53,18.66 20.71,18.71 Z M 20.71,18.71" />
    </g>
</svg>
