<?xml version="1.0" encoding="UTF-8"?>
<!DOCTYPE svg PUBLIC "-//W3C//DTD SVG 1.1//EN" "http://www.w3.org/Graphics/SVG/1.1/DTD/svg11.dtd">
<svg version="1.1" xmlns="http://www.w3.org/2000/svg" xmlns:xlink="http://www.w3.org/1999/xlink" width="24" height="24"  xml:space="preserve" id="waitingForPharmacistReview">
    <!-- Generated by PaintCode - http://www.paintcodeapp.com -->
    <g id="waitingForPharmacistReview-group" transform="" >
        <g id="waitingForPharmacistReview-group2" transform="scale(2.18, 2.18)" >
            <rect id="waitingForPharmacistReview-rectangle" stroke="none" fill="rgb(237, 159, 51)" x="1" y="1" width="9" height="9" rx="4.5" />
        </g>
        <g id="waitingForPharmacistReview-group3" transform="translate(6, 6) scale(1.2, 1.2)" >
            <path id="waitingForPharmacistReview-bezier3" stroke="none" fill="rgb(255, 255, 255)" d="M 3.91,4.27 L 6.18,4.27 8.54,1.73 7.38,0.5 3.91,4.27 Z M 0.5,5.14 L 0.5,6.45 C 0.5,7.17 1.05,7.76 1.73,7.76 L 1.73,7.76 8.27,7.76 C 8.95,7.76 9.5,7.17 9.5,6.45 L 9.5,6.45 9.5,5.14 0.5,5.14 Z M 1.32,9.5 L 8.68,9.5 8.68,8.63 1.32,8.63 1.32,9.5 Z M 1.32,9.5" />
        </g>
    </g>
</svg>
