<?xml version="1.0" encoding="UTF-8"?>
<!DOCTYPE svg PUBLIC "-//W3C//DTD SVG 1.1//EN" "http://www.w3.org/Graphics/SVG/1.1/DTD/svg11.dtd">
<svg version="1.1" xmlns="http://www.w3.org/2000/svg" xmlns:xlink="http://www.w3.org/1999/xlink" width="24" height="24"  xml:space="preserve" id="adjustedSameInfusionRateDone">
    <!-- Generated by PaintCode - http://www.paintcodeapp.com -->
    <g id="adjustedSameInfusionRateDone-group">
        <g id="adjustedSameInfusionRateDone-group2">
            <g id="adjustedSameInfusionRateDone-group3" transform="scale(2.18, 2.18)" >
                <rect id="adjustedSameInfusionRateDone-rectangle" stroke="none" fill="rgb(82, 176, 73)" x="1" y="1" width="9" height="9" rx="2" />
                <path id="adjustedSameInfusionRateDone-border" stroke="rgb(34, 11, 91)" stroke-width="0.25" stroke-miterlimit="10" fill="none" d="M 1,8 C 1,9.1 1.9,10 3,10 L 8,10 C 9.1,10 10,9.1 10,8 L 10,3 C 10,1.9 9.1,1 8,1 L 3,1 C 1.9,1 1,1.9 1,3 L 1,8 Z M 1,8" />
            </g>
        </g>
        <g id="adjustedSameInfusionRateDone-group4" transform="" >
            <g id="adjustedSameInfusionRateDone-group5" transform="translate(3.5, 6) scale(1.7, 1.18)" >
                <g id="adjustedSameInfusionRateDone-group6" transform="scale(0.71, 1.1)" >
                    <path id="adjustedSameInfusionRateDone-bezier2" stroke="none" fill="rgb(255, 255, 255)" d="M 8.93,3.14 C 8.93,3.14 12.15,5 12.15,5 L 8.93,6.86 C 8.93,6.86 8.93,6.37 8.93,5.75 L 3,5.75 C 2.59,5.75 2.25,5.42 2.25,5 2.25,4.59 2.59,4.25 3,4.25 L 8.93,4.25 C 8.93,3.63 8.93,3.14 8.93,3.14 L 8.93,3.14 Z M 8.93,3.14" />
                </g>
            </g>
        </g>
    </g>
    <g id="adjustedSameInfusionRateDone-group7" transform="" >
        <g id="adjustedSameInfusionRateDone-group8" transform="translate(9, 14)" >
            <path id="adjustedSameInfusionRateDone-bezier" stroke="rgb(149, 37, 39)" stroke-width="0.7" stroke-linecap="round" stroke-linejoin="round" stroke-miterlimit="10" fill="none" d="M 3,1 L 5,5 1,5 3,1 Z M 3,1" />
        </g>
    </g>
</svg>
